<?xml version="1.0" standalone="no"?>
<!DOCTYPE svg PUBLIC "-//W3C//DTD SVG 20010904//EN"
 "http://www.w3.org/TR/2001/REC-SVG-20010904/DTD/svg10.dtd">
<svg version="1.0" xmlns="http://www.w3.org/2000/svg"
 width="252.000000pt" height="252.000000pt" viewBox="0 0 252.000000 252.000000"
 preserveAspectRatio="xMidYMid meet">
<metadata>
Created by potrace 1.14, written by Peter Selinger 2001-2017
</metadata>
<g transform="translate(0.000000,252.000000) scale(0.100000,-0.100000)"
fill="#000000" stroke="none">
<path d="M910 2440 c56 -141 146 -277 255 -385 74 -73 144 -115 290 -176 277
-114 468 -301 567 -555 171 -441 -61 -949 -530 -1158 -253 -113 -560 -127
-751 -34 -84 41 -203 159 -248 243 -76 146 -102 336 -69 523 24 135 44 190
175 462 123 255 139 292 167 400 22 82 24 256 4 320 l-14 45 -7 -95 c-13 -179
-68 -321 -225 -576 -189 -310 -253 -499 -240 -719 7 -134 23 -195 77 -304 74
-146 224 -284 376 -346 257 -104 707 -52 993 115 249 145 426 389 485 666 23
103 23 295 1 387 -64 270 -277 531 -543 665 -23 12 -97 40 -165 63 -165 56
-239 95 -325 171 -78 68 -185 190 -247 281 -22 31 -41 57 -43 57 -1 0 6 -22
17 -50z"/>
<path d="M1336 919 c-39 -31 -56 -71 -56 -136 0 -120 35 -173 115 -173 79 0
158 42 196 104 28 46 26 117 -6 154 -57 68 -192 96 -249 51z"/>
</g>
</svg>
